<?xml version="1.0" standalone="no"?>
<!DOCTYPE svg PUBLIC "-//W3C//DTD SVG 20010904//EN"
 "http://www.w3.org/TR/2001/REC-SVG-20010904/DTD/svg10.dtd">
<svg version="1.0" xmlns="http://www.w3.org/2000/svg"
 width="512.000000pt" height="512.000000pt" viewBox="0 0 512.000000 512.000000"
 preserveAspectRatio="xMidYMid meet">
<metadata>
Created by potrace 1.14, written by Peter Selinger 2001-2017
</metadata>
<g transform="translate(0.000000,512.000000) scale(0.100000,-0.100000)"
fill="#000000" stroke="none">
<path d="M2441 4379 c-92 -11 -239 -49 -337 -89 -369 -148 -676 -502 -775
-894 -15 -57 -27 -86 -36 -86 -10 0 -12 -6 -8 -20 4 -12 2 -20 -6 -20 -9 0 -9
-3 0 -14 8 -10 13 -73 15 -193 2 -188 14 -267 62 -413 104 -317 354 -604 659
-758 109 -54 236 -98 347 -119 123 -23 380 -22 493 1 99 20 245 66 245 77 0 4
-37 -5 -82 -20 -201 -68 -459 -84 -667 -42 -57 11 -106 22 -108 25 -7 7 119
-4 157 -14 57 -14 167 -23 182 -14 7 5 38 10 68 11 87 4 350 99 336 121 -3 5
8 9 25 10 25 1 28 -2 19 -13 -10 -12 -7 -12 14 -2 l25 12 -23 40 c-33 55 -69
74 -203 102 -142 30 -175 46 -253 123 -67 66 -95 78 -152 63 -21 -6 -41 -7
-43 -3 -8 13 43 68 101 111 79 58 81 99 8 134 -31 15 -53 16 -134 10 -116 -8
-160 2 -245 53 -73 44 -186 155 -242 237 -130 193 -187 424 -149 605 55 263
255 416 606 466 58 8 120 23 138 32 33 17 34 16 53 -7 10 -13 19 -39 19 -58 0
-29 5 -36 30 -44 38 -14 38 -21 0 -53 -42 -35 -86 -41 -138 -20 -31 12 -56 15
-92 10 -42 -6 -49 -4 -55 12 -9 29 -38 52 -54 43 -11 -7 -11 -13 3 -32 22 -32
20 -48 -8 -55 -17 -4 -31 1 -50 21 -26 26 -46 26 -46 1 0 -8 7 -19 15 -26 21
-18 19 -27 -12 -44 -26 -14 -30 -13 -56 12 -20 19 -30 23 -38 15 -9 -9 -6 -19
10 -39 l22 -27 -27 -28 -27 -28 -27 21 c-46 34 -70 2 -25 -33 l24 -20 -19 -31
c-18 -30 -21 -31 -80 -29 -55 2 -61 1 -58 -16 2 -14 15 -19 51 -23 l48 -5 2
-90 c2 -74 7 -99 28 -142 l25 -52 -27 -11 c-41 -17 -66 -47 -50 -63 9 -9 15
-9 29 1 9 7 31 19 47 26 28 14 32 13 57 -11 27 -26 27 -27 8 -40 -34 -24 -64
-73 -51 -86 8 -8 23 0 56 33 l45 44 53 -17 c30 -9 79 -17 109 -17 l55 0 6 -77
c3 -43 8 -86 12 -96 10 -24 41 -17 37 8 -12 89 -13 134 -3 153 16 29 41 28 41
-2 0 -42 21 -87 39 -84 11 3 15 12 12 28 -14 84 4 129 29 71 16 -41 37 -58 52
-43 9 9 7 20 -7 47 -12 22 -16 38 -10 44 6 5 66 37 135 72 112 57 131 64 185
64 42 0 78 -8 118 -24 67 -29 78 -27 217 35 112 49 178 52 240 9 23 -16 92
-87 153 -158 107 -124 112 -128 115 -99 2 20 10 32 23 35 10 3 19 10 19 17 0
7 -8 9 -20 5 -17 -6 -20 -2 -20 29 0 32 2 35 23 27 12 -4 23 -18 25 -30 2 -11
12 -27 23 -34 10 -8 16 -17 12 -20 -3 -4 -2 -7 4 -7 6 0 7 -17 2 -47 -11 -65
-10 -96 2 -57 5 17 12 69 16 115 8 79 10 84 30 82 17 -2 21 1 16 15 -4 9 -15
24 -24 32 -9 8 -20 36 -24 62 -6 43 -5 46 15 41 26 -7 26 4 0 25 -22 18 -45
92 -29 92 5 0 9 -7 9 -16 0 -10 4 -12 13 -7 6 4 20 6 30 5 9 -2 17 3 17 11 0
17 -67 77 -87 77 -9 0 -13 8 -11 24 1 13 -2 29 -8 37 -14 17 -34 76 -34 98 0
14 2 14 10 1 5 -8 10 -25 10 -37 0 -26 15 -31 24 -8 3 8 1 15 -3 15 -5 0 -8
14 -7 32 1 26 -3 33 -24 38 -14 3 -26 11 -26 18 -1 7 -2 17 -3 24 -1 9 -4 9
-13 0 -9 -9 -20 3 -46 51 -19 34 -36 69 -37 77 -1 8 -8 14 -14 12 -6 -1 -17 9
-23 23 -6 14 -15 25 -20 25 -4 0 -8 5 -8 10 0 18 49 10 63 -10 8 -12 21 -18
29 -15 8 3 21 -1 28 -11 13 -15 14 -15 20 1 4 12 12 5 29 -27 13 -24 20 -40
16 -36 -4 4 -14 3 -21 -3 -10 -8 -17 -7 -29 4 -8 9 -15 20 -15 26 0 5 -4 12
-8 15 -19 12 3 -57 26 -84 31 -35 67 -41 59 -10 -8 30 1 24 18 -12 8 -18 13
-24 10 -13 l-5 20 16 -20 16 -20 -5 20 c-3 11 -8 33 -12 49 -3 16 -17 37 -30
47 -15 12 -21 26 -18 38 3 13 -2 21 -15 25 -11 4 -28 18 -37 32 -39 60 -165
192 -239 251 -285 226 -632 324 -995 282z m410 -25 c161 -30 341 -105 485
-200 55 -36 85 -66 46 -45 -12 6 -23 15 -27 20 -3 5 -18 12 -34 16 -16 3 -41
17 -55 30 -13 12 -27 21 -29 19 -2 -3 -40 6 -83 20 -114 35 -132 38 -204 42
-36 2 -69 4 -75 4 -5 1 -19 1 -30 0 -11 0 -49 3 -84 6 -57 6 -63 8 -46 20 18
13 18 14 0 34 -10 11 -22 17 -28 13 -5 -3 -45 -5 -88 -4 -67 2 -83 -1 -108
-20 -17 -12 -28 -26 -25 -30 2 -4 -17 -11 -42 -15 -26 -4 -73 -15 -105 -24
-62 -19 -75 -11 -36 20 20 17 21 19 4 26 -22 8 -56 -24 -54 -51 3 -24 -111
-69 -131 -52 -10 8 -16 7 -22 -3 -5 -8 -18 -11 -39 -7 -24 5 -33 2 -45 -15 -8
-12 -13 -24 -11 -27 2 -4 -5 -17 -14 -30 -13 -17 -30 -25 -55 -26 -54 -3 -65
-20 -27 -39 28 -15 35 -14 33 4 -1 5 45 6 56 1 2 0 -3 -8 -12 -16 -8 -8 -21
-13 -29 -10 -7 3 -20 -1 -27 -10 -7 -8 -22 -15 -33 -15 -19 0 -20 1 -2 20 19
21 8 29 -12 9 -8 -8 -13 -2 -18 21 l-7 32 -21 -30 c-22 -31 -80 -75 -103 -78
-7 -1 -20 3 -29 10 -15 11 -8 20 56 75 223 189 474 296 764 325 67 7 266 -5
346 -20z m-164 -80 c-3 -3 -12 -4 -19 -1 -8 3 -5 6 6 6 11 1 17 -2 13 -5z
m101 -29 c-9 -10 -108 -22 -108 -14 0 8 33 15 84 18 16 0 27 -1 24 -4z m-368
-15 c0 -5 8 -10 18 -10 10 0 24 -6 30 -12 10 -10 17 -10 31 -1 10 6 23 8 30 4
14 -9 -75 -47 -98 -42 -7 1 -10 -2 -6 -8 3 -7 -2 -11 -14 -11 -16 0 -148 -38
-198 -57 -23 -9 -14 25 12 45 25 20 25 20 3 25 -11 3 -35 3 -52 0 -47 -9 -21
11 49 36 49 19 119 34 183 40 6 0 12 -3 12 -9z m1067 -212 c-6 -4 -10 -8 -7
-9 3 0 12 -2 21 -4 19 -3 64 -45 49 -45 -5 0 -10 -7 -10 -15 0 -8 -6 -15 -14
-15 -8 0 -21 -3 -30 -6 -10 -4 -35 15 -74 55 -36 38 -66 61 -80 61 -12 0 -22
5 -22 10 0 6 7 10 16 10 14 0 14 3 4 15 -10 12 -10 15 2 15 8 0 20 -6 27 -12
11 -10 13 -10 7 0 -9 15 6 16 22 0 9 -9 12 -8 12 5 0 14 10 10 45 -20 31 -26
41 -39 32 -45z m-1335 51 c-39 -20 -62 -19 -62 4 0 9 15 13 50 14 l50 1 -38
-19z m32 -25 c4 -10 1 -14 -6 -12 -15 5 -23 28 -10 28 5 0 13 -7 16 -16z
m-376 -63 c-1 -5 -40 -48 -85 -95 -45 -47 -80 -86 -77 -86 2 0 -14 -25 -37
-56 -22 -31 -63 -101 -89 -156 -30 -63 -58 -107 -74 -118 -24 -15 -25 -18 -11
-30 19 -16 19 -33 1 -73 -8 -18 -17 -59 -19 -91 -3 -32 -11 -64 -16 -69 -7 -7
-7 -14 0 -23 7 -9 7 -19 0 -32 -6 -11 -7 -22 -3 -26 3 -4 0 -11 -8 -17 -11 -6
-12 -11 -4 -16 6 -5 15 -44 18 -88 9 -108 23 -181 51 -279 25 -87 92 -243 100
-234 3 3 -13 44 -35 92 -49 105 -89 253 -97 359 -5 70 -4 77 11 71 9 -4 15
-13 12 -21 -4 -8 4 -17 20 -23 19 -8 25 -16 21 -30 -4 -15 0 -20 13 -20 36 0
41 -55 5 -64 -14 -4 -25 -13 -25 -21 0 -8 11 -25 25 -37 14 -12 25 -30 25 -39
0 -10 8 -23 18 -28 10 -6 19 -23 20 -43 1 -18 10 -38 19 -45 9 -7 24 -30 34
-52 l17 -39 -44 3 c-37 2 -43 0 -33 -11 6 -8 9 -26 6 -41 -3 -15 0 -37 6 -48
10 -19 9 -19 -9 -5 -19 14 -19 14 0 -8 22 -26 41 -29 32 -6 -5 14 -4 15 9 4
16 -13 21 -35 6 -26 -10 6 -25 -24 -16 -32 3 -3 5 1 5 9 0 7 11 -3 25 -23 36
-53 31 -66 -10 -24 -37 38 -51 45 -41 21 4 -11 -1 -15 -17 -15 -19 -1 -20 -2
-7 -13 9 -7 32 -33 53 -58 29 -36 34 -48 23 -52 -24 -9 -177 210 -201 288 -6
19 -6 19 12 -1 14 -16 21 -18 30 -9 13 14 0 41 -15 31 -23 -14 -43 10 -71 82
-54 141 -75 267 -76 449 0 157 6 196 26 160 6 -9 15 -15 20 -12 5 4 7 11 4 16
-4 5 4 13 16 17 19 8 20 9 5 15 -10 4 -14 11 -11 17 3 6 3 19 0 31 -5 16 -9
18 -21 8 -8 -6 -16 -10 -19 -7 -7 6 21 115 50 198 28 76 114 250 124 250 14
-1 39 -27 44 -45 4 -18 5 -18 6 2 0 12 5 25 11 28 14 9 44 75 36 82 -3 3 -6
-1 -6 -10 0 -9 -5 -19 -10 -22 -7 -4 -9 2 -4 19 7 28 -4 34 -25 14 -34 -33 11
31 59 82 35 38 49 48 45 33 -10 -35 4 -46 26 -21 16 20 20 21 29 8 8 -13 16
-9 47 23 36 35 59 48 51 28z m53 -31 c5 0 9 5 9 10 0 6 10 10 21 10 17 0 19
-3 10 -14 -6 -7 -21 -12 -34 -11 -12 1 -28 3 -36 4 -11 1 -11 4 0 18 13 15 14
15 17 0 2 -10 8 -17 13 -17z m-71 -47 c-11 -14 -20 -33 -20 -42 0 -9 -13 -31
-29 -48 -16 -18 -27 -34 -25 -36 3 -2 -2 -10 -11 -17 -12 -10 -15 -10 -15 4 0
9 -7 16 -16 16 -13 0 -15 -7 -9 -39 6 -39 -4 -59 -25 -46 -8 5 -7 11 1 21 9
11 8 15 -5 20 -14 5 -11 13 16 48 49 64 141 156 150 150 5 -3 -1 -17 -12 -31z
m1876 -71 c-2 -2 -12 1 -23 7 -10 5 -30 12 -45 16 -30 6 -39 35 -11 35 13 0
14 3 5 12 -7 7 -12 17 -12 23 1 5 21 -12 45 -39 25 -28 43 -52 41 -54z m-146
46 c0 6 7 9 15 6 19 -8 19 -20 1 -27 -8 -3 -26 9 -42 26 l-29 32 28 -24 c15
-14 27 -19 27 -13z m5 -50 c56 -66 122 -169 159 -250 46 -101 51 -118 32 -118
-9 0 -16 -4 -16 -10 0 -5 -7 -10 -15 -10 -19 0 -19 -14 -1 -29 11 -9 15 -9 18
1 4 10 8 10 21 -1 10 -7 17 -10 17 -5 0 5 5 1 11 -10 9 -14 8 -21 -2 -27 -12
-8 -11 -12 3 -23 24 -18 35 -75 17 -87 -12 -7 -11 -10 2 -21 10 -8 19 -35 23
-68 l6 -55 -25 40 c-13 22 -34 60 -46 85 -12 25 -37 77 -55 116 -19 39 -34 80
-34 91 0 11 -11 40 -25 64 -57 102 -65 119 -65 138 0 11 6 22 13 24 6 3 -2 6
-20 6 -28 1 -34 6 -41 34 -6 24 -5 33 5 35 24 6 7 27 -18 24 -23 -3 -23 -3 -5
10 16 13 17 17 5 36 -8 12 -20 22 -27 22 -10 0 -10 3 0 15 19 21 23 19 63 -27z
m-179 4 c1 -25 -6 -28 -24 -10 -18 18 -15 40 6 36 9 -2 17 -13 18 -26z m74 24
c0 -11 -19 -15 -25 -6 -3 5 1 10 9 10 9 0 16 -2 16 -4z m-150 -58 c0 -12 -6
-9 -26 13 -19 22 -19 22 4 8 12 -8 22 -17 22 -21z m190 2 c0 -16 -17 -20 -28
-7 -8 10 -6 13 9 14 10 1 19 -2 19 -7z m-70 -10 c0 -5 -4 -10 -10 -10 -5 0
-10 5 -10 10 0 6 5 10 10 10 6 0 10 -4 10 -10z m-22 -103 c8 3 27 -9 43 -27
23 -24 33 -29 43 -21 7 6 15 8 19 5 3 -3 3 5 0 18 l-6 23 21 -25 c12 -16 18
-35 16 -50 -3 -14 4 -42 14 -62 18 -33 20 -35 35 -21 13 13 19 14 31 3 9 -7
16 -16 16 -20 0 -15 -108 3 -111 19 -1 3 -3 16 -4 27 -3 28 -13 44 -28 44 -16
1 -67 46 -67 60 0 5 -6 11 -12 11 -7 1 -17 2 -23 4 -5 1 -16 3 -23 3 -7 1 -11
6 -8 11 3 5 -1 11 -9 15 -8 3 -15 11 -15 18 0 6 12 0 28 -14 15 -14 33 -23 40
-21z m-1819 -95 c-6 -18 -15 -32 -20 -32 -5 0 -1 16 8 35 20 42 27 40 12 -3z
m2009 1 c5 -18 -23 -16 -39 3 -11 14 -10 15 11 12 13 -1 25 -9 28 -15z m-2052
-104 c-9 -19 -15 -26 -16 -17 0 23 22 75 26 62 3 -6 -2 -26 -10 -45z m2089
-19 c5 -8 -24 -30 -39 -30 -3 0 -6 14 -6 30 0 27 2 30 19 20 11 -5 23 -14 26
-20z m-2105 -100 c0 -13 -1 -13 -10 0 -9 13 -11 13 -21 0 -9 -13 -10 -12 -5 3
3 10 6 26 6 35 0 13 3 12 15 -4 8 -10 14 -26 15 -34z m-10 -30 c0 -5 -4 -10
-10 -10 -5 0 -10 5 -10 10 0 6 5 10 10 10 6 0 10 -4 10 -10z m2134 -6 c9 -22
-3 -32 -14 -14 -12 19 -12 30 -1 30 5 0 12 -7 15 -16z m32 -44 c23 0 34 -44
38 -153 2 -56 2 -88 -1 -72 -6 48 -24 76 -44 70 -15 -5 -18 0 -19 27 0 64 -5
106 -12 114 -14 13 -8 26 8 20 9 -3 22 -6 30 -6z m61 -67 c-3 -2 3 -23 14 -46
25 -55 25 -100 2 -95 -11 2 -18 13 -19 28 0 14 -4 54 -8 90 -5 50 -4 61 5 47
6 -10 9 -21 6 -24z m-2282 -93 c3 -5 1 -10 -4 -10 -6 0 -11 5 -11 10 0 6 2 10
4 10 3 0 8 -4 11 -10z m19 -56 c9 -3 14 -10 11 -14 -6 -10 -45 -1 -45 11 0 10
12 11 34 3z m146 -199 c13 8 11 -10 -6 -67 -4 -12 0 -18 10 -18 9 0 16 5 16
10 0 6 5 10 10 10 6 0 8 -10 5 -22 -10 -47 -14 -118 -7 -118 4 0 13 5 19 11 8
8 15 4 27 -12 18 -26 21 -55 7 -64 -12 -7 -6 -42 10 -61 9 -11 8 -14 -3 -14
-8 0 -22 16 -31 36 -12 24 -13 33 -5 28 7 -4 3 3 -9 14 -23 23 -48 86 -39 101
3 5 -1 12 -10 15 -12 5 -15 14 -10 36 3 17 1 30 -4 30 -8 0 -16 24 -35 105
l-7 30 25 -29 c16 -18 29 -26 37 -21z m50 -165 c0 -5 -2 -10 -4 -10 -3 0 -8 5
-11 10 -3 6 -1 10 4 10 6 0 11 -4 11 -10z m150 -413 c24 -19 74 -91 75 -107 0
-3 11 -16 24 -29 18 -18 21 -25 10 -32 -20 -12 -75 34 -72 60 2 12 -2 21 -7
21 -6 0 -10 13 -10 29 0 17 -6 31 -16 35 -22 8 -26 8 -19 -4 8 -13 -21 -13
-46 0 -21 12 -26 46 -6 53 17 7 34 1 67 -26z m-110 -101 c0 -8 5 -18 12 -22 7
-5 8 -3 2 7 -6 10 0 9 19 -3 29 -20 63 -23 72 -8 3 6 43 -19 89 -54 45 -35 97
-71 115 -80 18 -10 29 -21 25 -28 -4 -6 -3 -8 3 -5 6 4 53 -11 104 -34 141
-61 140 -60 89 -53 -25 3 -49 10 -55 14 -5 4 -27 10 -48 14 -37 7 -125 53
-158 82 -9 8 -28 17 -43 20 -25 4 -25 3 11 -29 42 -36 134 -97 149 -97 5 0 15
-9 22 -20 7 -11 22 -20 34 -20 12 0 18 -3 14 -7 -4 -4 10 -16 31 -25 67 -31
-9 -7 -92 29 -44 19 -113 55 -154 81 -90 55 -240 178 -270 221 l-22 31 25 0
c16 0 26 -6 26 -14z m340 -52 c0 -3 -7 -4 -16 -2 -30 5 -25 -17 8 -36 48 -29
77 -57 72 -70 -3 -7 8 -13 27 -14 41 -3 49 -9 49 -33 0 -26 -10 -24 -83 12
-80 40 -119 68 -112 80 4 5 -5 9 -18 9 -14 0 -30 6 -36 14 -10 11 -8 16 8 21
12 3 26 15 31 25 9 16 15 17 40 8 17 -5 30 -12 30 -14z m44 10 c9 -3 14 -10
11 -15 -7 -10 -35 0 -35 12 0 11 3 11 24 3z m112 -16 c38 -26 67 -76 37 -63
-25 10 -97 24 -102 20 -2 -3 21 -16 50 -30 30 -14 43 -23 29 -19 -14 3 -36 8
-50 11 -14 3 -31 12 -37 21 -10 12 -9 19 9 34 12 10 29 16 37 13 11 -4 10 0
-4 15 -24 26 -9 26 31 -2z m-111 -26 c-3 -3 -11 0 -18 7 -9 10 -8 11 6 5 10
-3 15 -9 12 -12z m874 -186 c-12 -10 -60 -16 -54 -6 3 5 18 10 32 10 15 0 24
-2 22 -4z m-639 -26 c12 -8 11 -10 -7 -10 -12 0 -25 5 -28 10 -8 13 15 13 35
0z m620 -1 c-13 -6 -27 -14 -30 -18 -8 -12 -70 -31 -70 -21 0 11 32 29 69 41
37 11 60 9 31 -2z"/>
<path d="M2328 4213 c-25 -4 -26 -5 -10 -24 14 -17 17 -17 25 -3 7 12 18 14
43 9 21 -3 34 -2 34 5 0 5 -9 10 -19 10 -11 0 -25 2 -33 3 -7 2 -25 2 -40 0z"/>
<path d="M3385 4030 c3 -5 18 -10 33 -10 21 0 24 2 12 10 -20 13 -53 13 -45 0z"/>
<path d="M3440 4001 c0 -9 30 -24 36 -18 2 1 -6 8 -16 15 -11 7 -20 8 -20 3z"/>
<path d="M1337 3193 c-11 -10 -8 -43 3 -43 17 0 4 -43 -14 -50 -16 -5 -17 -7
-2 -19 9 -7 16 -24 16 -37 0 -35 15 -29 27 10 6 20 7 40 1 50 -7 12 -5 16 7
16 9 0 13 5 10 10 -4 6 -11 8 -16 5 -12 -8 -12 8 1 21 6 6 8 18 4 27 -6 17
-25 22 -37 10z"/>
<path d="M1505 2660 c-7 -12 -7 -12 23 -15 27 -3 28 1 3 15 -13 7 -22 7 -26 0z"/>
<path d="M1530 2619 c0 -9 7 -22 15 -29 19 -16 19 0 0 26 -12 16 -14 16 -15 3z"/>
<path d="M1506 2466 c3 -9 11 -16 16 -16 13 0 5 23 -10 28 -7 2 -10 -2 -6 -12z"/>
<path d="M1482 2443 c7 -18 16 -33 20 -33 13 0 9 13 -12 40 l-20 25 12 -32z"/>
<path d="M3655 3510 c-3 -5 -1 -10 4 -10 6 0 11 5 11 10 0 6 -2 10 -4 10 -3 0
-8 -4 -11 -10z"/>
<path d="M3645 3191 c-3 -5 -1 -12 5 -16 5 -3 10 1 10 9 0 18 -6 21 -15 7z"/>
<path d="M1795 2130 c-3 -5 1 -10 10 -10 9 0 13 5 10 10 -3 6 -8 10 -10 10 -2
0 -7 -4 -10 -10z"/>
<path d="M1818 2083 c6 -2 18 -2 25 0 6 3 1 5 -13 5 -14 0 -19 -2 -12 -5z"/>
<path d="M3670 3760 c0 -5 5 -10 11 -10 5 0 7 5 4 10 -3 6 -8 10 -11 10 -2 0
-4 -4 -4 -10z"/>
<path d="M3796 3646 c-4 -15 3 -45 18 -78 38 -86 50 -139 34 -149 -9 -6 -10
-9 -1 -9 20 0 30 -29 47 -132 21 -121 21 -315 2 -428 -14 -78 -15 -116 -2 -73
31 108 38 379 11 526 -8 49 -31 137 -50 196 -19 59 -35 122 -35 139 0 38 -15
42 -24 8z"/>
<path d="M3770 3571 c0 -12 5 -21 10 -21 6 0 10 6 10 14 0 8 -4 18 -10 21 -5
3 -10 -3 -10 -14z"/>
<path d="M1290 3463 c0 -13 5 -23 10 -23 13 0 13 11 0 30 -8 12 -10 11 -10 -7z"/>
<path d="M1250 3460 c0 -5 5 -10 11 -10 5 0 7 5 4 10 -3 6 -8 10 -11 10 -2 0
-4 -4 -4 -10z"/>
<path d="M3813 3405 c0 -8 4 -15 9 -15 4 0 8 7 8 15 0 8 -4 15 -8 15 -5 0 -9
-7 -9 -15z"/>
<path d="M3390 3013 c0 -10 15 -45 33 -77 37 -66 74 -91 182 -123 49 -15 64
-25 83 -54 17 -26 29 -35 42 -32 17 5 17 7 -3 44 -25 48 -62 72 -140 92 -80
21 -102 38 -137 107 -29 57 -60 79 -60 43z"/>
<path d="M3712 2915 c0 -16 2 -22 5 -12 2 9 2 23 0 30 -3 6 -5 -1 -5 -18z"/>
<path d="M2717 2878 c-43 -33 -40 -100 5 -132 30 -22 60 -20 92 5 34 27 37 88
4 119 -25 23 -76 27 -101 8z"/>
<path d="M3274 2755 c-54 -55 -94 -135 -94 -191 0 -22 -6 -49 -14 -59 -13 -19
-15 -17 -21 18 -4 22 -5 62 -1 90 4 29 7 61 9 72 4 32 -31 31 -40 -2 -8 -27
-9 -130 -3 -223 2 -32 -7 -70 -29 -130 -30 -79 -32 -92 -27 -180 4 -88 28
-190 45 -190 22 0 27 23 14 63 -27 77 -28 185 -4 268 63 208 214 359 359 359
60 0 83 -9 128 -52 31 -29 31 -29 37 -7 8 29 3 35 -51 70 -89 56 -222 33 -321
-56 -25 -23 -41 -32 -41 -23 0 31 54 120 96 157 24 21 44 44 44 50 0 25 -43 8
-86 -34z"/>
<path d="M3737 2691 c-4 -17 -3 -21 5 -13 5 5 8 16 6 23 -3 8 -7 3 -11 -10z"/>
<path d="M3800 2535 c-6 -15 -8 -30 -6 -33 3 -3 10 8 16 23 6 15 8 30 6 33 -3
3 -10 -8 -16 -23z"/>
<path d="M3677 2543 c-4 -3 -7 -11 -7 -17 0 -6 5 -5 12 2 6 6 9 14 7 17 -3 3
-9 2 -12 -2z"/>
<path d="M3740 2420 c-6 -12 -9 -24 -7 -27 3 -2 11 5 17 17 6 12 9 24 7 27 -3
2 -11 -5 -17 -17z"/>
<path d="M3164 1885 c-10 -8 -14 -14 -9 -15 15 0 40 18 34 24 -3 3 -14 -1 -25
-9z"/>
<path d="M1647 1536 c-83 -31 -125 -93 -126 -186 -2 -110 46 -179 139 -199 30
-6 73 -9 96 -5 39 5 42 9 48 42 10 65 10 65 -37 59 -59 -8 -85 0 -102 34 -23
43 -19 125 6 150 21 21 69 23 110 5 13 -6 19 2 28 40 8 29 8 51 3 56 -17 17
-124 19 -165 4z"/>
<path d="M2915 1539 c-37 -14 -82 -55 -103 -94 -25 -46 -22 -170 4 -215 41
-70 128 -103 214 -80 152 41 189 276 59 372 -31 24 -130 33 -174 17z m109
-111 c11 -15 16 -45 16 -88 0 -74 -18 -110 -54 -110 -45 0 -60 23 -64 96 -5
95 7 124 52 124 25 0 39 -7 50 -22z"/>
<path d="M1860 1345 l0 -195 140 0 140 0 0 50 0 49 -80 -6 -80 -6 0 32 0 31
60 0 c44 0 60 4 60 14 0 7 3 28 6 45 l7 31 -67 0 -66 0 0 30 0 30 80 0 80 0 0
35 c0 19 4 35 8 35 4 0 34 -56 65 -124 50 -107 57 -131 57 -185 l0 -61 58 0
58 0 -4 59 c-4 57 -2 63 68 195 l71 136 -60 0 -61 0 -31 -70 c-18 -38 -35 -70
-39 -70 -4 0 -19 30 -33 68 l-25 67 -206 3 -206 2 0 -195z"/>
<path d="M2545 1345 l0 -195 118 0 117 0 0 50 0 50 -61 0 -62 0 5 145 6 145
-62 0 -61 0 0 -195z"/>
<path d="M3220 1345 l0 -195 53 0 54 0 -5 105 c-3 58 -2 105 1 105 3 0 31 -47
62 -105 l56 -105 65 0 64 0 0 195 0 195 -56 0 -57 0 5 -100 c3 -55 2 -100 -1
-100 -4 0 -30 45 -60 100 l-52 100 -65 0 -64 0 0 -195z"/>
<path d="M1814 958 c59 -229 59 -229 90 -226 26 3 31 9 44 56 8 28 17 52 21
52 3 0 13 -24 21 -52 14 -48 18 -53 44 -53 28 0 30 4 68 115 21 63 38 118 38
123 0 5 -10 7 -21 5 -18 -2 -27 -19 -48 -90 -14 -48 -29 -89 -32 -93 -3 -3
-17 36 -31 87 -21 81 -28 93 -48 96 -21 3 -22 1 -16 -28 6 -30 -17 -135 -33
-153 -7 -7 -51 142 -51 171 0 6 -12 12 -26 12 -22 0 -25 -3 -20 -22z"/>
<path d="M2180 856 c0 -125 0 -126 23 -126 24 0 24 1 23 123 -1 119 -2 122
-23 125 -23 3 -23 2 -23 -122z"/>
<path d="M2290 855 l0 -125 65 0 c58 0 65 2 65 20 0 17 -7 20 -40 20 l-40 0 0
105 0 105 -25 0 -25 0 0 -125z"/>
<path d="M2456 971 c-3 -5 -6 -61 -5 -125 l0 -116 70 0 c61 0 72 3 100 28 26
23 33 38 37 80 6 66 -11 106 -53 126 -35 17 -140 22 -149 7z m131 -57 c22 -22
25 -32 20 -70 -6 -58 -21 -74 -68 -74 l-39 0 0 78 c0 43 3 82 7 85 15 15 55 5
80 -19z"/>
<path d="M2700 855 l0 -126 67 3 c55 2 68 6 71 21 3 14 -4 17 -42 17 l-46 0 0
105 0 105 -25 0 -25 0 0 -125z"/>
<path d="M2870 855 l0 -125 25 0 25 0 0 125 0 125 -25 0 -25 0 0 -125z"/>
<path d="M2986 971 c-3 -5 -6 -61 -5 -125 0 -116 0 -116 25 -116 22 0 24 4 24
50 l0 50 40 0 c33 0 40 3 40 20 0 17 -7 20 -41 20 -39 0 -40 1 -37 33 3 32 4
32 51 29 45 -3 47 -2 47 22 0 25 -2 26 -69 26 -39 0 -72 -4 -75 -9z"/>
<path d="M3160 855 l0 -125 75 0 c68 0 75 2 75 20 0 17 -7 20 -50 20 -49 0
-50 1 -50 30 0 28 2 30 40 30 36 0 40 2 40 26 0 23 -3 25 -24 20 -38 -9 -56 3
-56 36 l0 31 49 -7 c43 -6 49 -4 54 13 3 11 2 22 -1 25 -3 3 -38 6 -79 6 l-73
0 0 -125z"/>
</g>
</svg>
